<svg xmlns="http://www.w3.org/2000/svg" width="110" height="31.175" viewBox="0 0 110 31.175">
  <g id="Group_19382" data-name="Group 19382" transform="translate(7688.992 -14288.026)">
    <path id="text23" d="M14.6-17.152v3.144a14.468,14.468,0,0,1-2.275.619,12.227,12.227,0,0,1-2.191.2,8.727,8.727,0,0,1-6.2-2.268A7.561,7.561,0,0,1,1.5-21.233,7.6,7.6,0,0,1,3.923-26.97,8.459,8.459,0,0,1,10-29.278a10.455,10.455,0,0,1,2.207.234,10.294,10.294,0,0,1,2.141.719v3.295a8.976,8.976,0,0,0-2.115-.962A7.475,7.475,0,0,0,10.1-26.3,5.392,5.392,0,0,0,6.229-24.88a4.806,4.806,0,0,0-1.5,3.646,4.852,4.852,0,0,0,1.522,3.7,5.6,5.6,0,0,0,4,1.43,9.451,9.451,0,0,0,2.216-.259,9.716,9.716,0,0,0,2.129-.793ZM17.64-13.49v-23.4h3.078v9.832a8.232,8.232,0,0,1,2.3-1.614,6,6,0,0,1,2.467-.507,5.379,5.379,0,0,1,3.98,1.455,5.4,5.4,0,0,1,1.455,4V-13.49H27.812v-9.451a4.138,4.138,0,0,0-.778-2.776,3.073,3.073,0,0,0-2.433-.888,4.658,4.658,0,0,0-2.141.468,5.378,5.378,0,0,0-1.742,1.508V-13.49Zm24.687-3.144v-4.531a17.244,17.244,0,0,0-4.291,1.788,2.325,2.325,0,0,0-1.179,1.907A1.825,1.825,0,0,0,37.466-16a2.57,2.57,0,0,0,1.713.518,4.566,4.566,0,0,0,1.608-.293A6.073,6.073,0,0,0,42.326-16.634Zm.117,1.876a9.082,9.082,0,0,1-2.216,1.177,6.87,6.87,0,0,1-2.249.36,4.856,4.856,0,0,1-3.245-1,3.4,3.4,0,0,1-1.171-2.734,3.9,3.9,0,0,1,1.268-2.876,9.977,9.977,0,0,1,3.83-2.093l3.663-1.221q.016-.134.025-.268t.008-.384a2.575,2.575,0,0,0-.677-2,3.3,3.3,0,0,0-2.233-.61,7.2,7.2,0,0,0-2.659.544,11.191,11.191,0,0,0-2.743,1.614v-3.045A8.373,8.373,0,0,1,36.7-28.754a9.777,9.777,0,0,1,3.128-.493,6.055,6.055,0,0,1,4.332,1.313,5.709,5.709,0,0,1,1.356,4.243v6.54a3.342,3.342,0,0,0,.142,1.163.49.49,0,0,0,.476.343,1.357,1.357,0,0,0,.594-.15,6.839,6.839,0,0,0,1.015-.7v1.873a6.107,6.107,0,0,1-1.691,1.061,4.711,4.711,0,0,1-1.773.343,2.045,2.045,0,0,1-1.332-.368A1.623,1.623,0,0,1,42.444-14.758ZM49.6-13.49V-28.943H52.68v3.362A11.452,11.452,0,0,1,55-28.408a3.552,3.552,0,0,1,2.233-.8,4.3,4.3,0,0,1,1.7.368,8.188,8.188,0,0,1,1.831,1.137l-1.673,2.743a5.617,5.617,0,0,0-1.439-.945,3.626,3.626,0,0,0-1.439-.292,2.854,2.854,0,0,0-2.188,1.054,6.321,6.321,0,0,0-1.338,2.927v8.731Zm40.174-1.89a8.232,8.232,0,0,1-2.3,1.614,6,6,0,0,1-2.467.507,5.379,5.379,0,0,1-3.98-1.455,5.379,5.379,0,0,1-1.456-3.978V-28.943h3.108v9.466a4.082,4.082,0,0,0,.794,2.768,3.135,3.135,0,0,0,2.467.9,4.5,4.5,0,0,0,2.082-.46A5.569,5.569,0,0,0,89.776-17.8v-11.14h3.078V-13.49H89.776ZM99.945-25.549v8.663a5.576,5.576,0,0,0,1.531.811,5.229,5.229,0,0,0,1.664.259,4.84,4.84,0,0,0,3.713-1.447,5.582,5.582,0,0,0,1.355-3.972,5.5,5.5,0,0,0-1.355-3.938,4.87,4.87,0,0,0-3.713-1.43,5.392,5.392,0,0,0-1.664.254,5.4,5.4,0,0,0-1.531.8ZM96.837-5.713v-23.23h3.108v.87a6.3,6.3,0,0,1,1.84-.911,7.39,7.39,0,0,1,2.141-.292,7.146,7.146,0,0,1,5.455,2.241,8.129,8.129,0,0,1,2.107,5.8,8.129,8.129,0,0,1-2.107,5.8,7.146,7.146,0,0,1-5.455,2.241,7.852,7.852,0,0,1-2.166-.275,6,6,0,0,1-1.815-.879v8.63Z" transform="translate(-7690.487 14324.914)" fill="#009035"/>
    <g id="Layer1002" transform="translate(-7630.614 14296.06)">
      <path id="path32" d="M441.27,129.184l-2.217,2.56h9.3l-4.837,5.181,12.513-2.009-5.9.059,5.1-5.792Z" transform="translate(-436.788 -129.184)" fill="#3c72b3" fill-rule="evenodd"/>
      <path id="path34" d="M450.305,148.9l2.217-2.56h-9.3l4.837-5.181-12.513,2.009,5.9-.059-5.1,5.792Z" transform="translate(-435.55 -133.413)" fill="#3c72b3" fill-rule="evenodd"/>
    </g>
  </g>
</svg>
