<svg xmlns="http://www.w3.org/2000/svg" width="24" height="24" viewBox="0 0 24 24">
  <g id="Iconly_Two-tone_Call" data-name="Iconly/Two-tone/Call" opacity="0.5">
    <g id="Call" transform="translate(2.5 2.5)">
      <path id="Call-2" data-name="Call" d="M.49,2.373C.807,1.849,2.549-.056,3.793,0a1.636,1.636,0,0,1,.967.517,16.863,16.863,0,0,1,2.468,3.34C7.471,5.026,6.078,5.7,6.5,6.878a9.873,9.873,0,0,0,5.619,5.616c1.177.426,1.851-.966,3.019-.723a16.894,16.894,0,0,1,3.34,2.468,1.639,1.639,0,0,1,.517.967c.046,1.309-1.977,3.077-2.371,3.3-.93.665-2.144.654-3.624-.034C8.874,16.757,2.274,10.282.524,6-.145,4.525-.192,3.3.49,2.373Z" fill="none" stroke="#200e32" stroke-linecap="round" stroke-linejoin="round" stroke-width="1.5"/>
      <path id="Stroke_1" data-name="Stroke 1" d="M0,0,1.469,2.179" transform="translate(1.883 1.294)" fill="none" stroke="#200e32" stroke-linecap="round" stroke-linejoin="round" stroke-width="1.5" opacity="0.4"/>
      <path id="Stroke_3" data-name="Stroke 3" d="M0,0,2.188,1.71" transform="translate(15.364 15.567)" fill="none" stroke="#200e32" stroke-linecap="round" stroke-linejoin="round" stroke-width="1.5" opacity="0.4"/>
    </g>
  </g>
</svg>
