<svg xmlns="http://www.w3.org/2000/svg" width="199.188" height="152.654" viewBox="0 0 199.188 152.654">
  <g id="Group_20390" data-name="Group 20390" transform="translate(-621.078 -372.729)">
    <g id="undraw_Mobile_login_re_9ntv" transform="translate(621.078 372.729)">
      <path id="Path_133" data-name="Path 133" d="M836.044,551.144a58.142,58.142,0,0,1-12.687,10.235c-.107.066-.217.128-.327.192l-7.59-6.718c.08-.074.168-.157.263-.249,5.656-5.37,33.732-42.918,35.6-52.061C851.178,503.305,852.995,533.178,836.044,551.144Z" transform="translate(-659.058 -411.787)" fill="#f0f0f0"/>
      <path id="Path_134" data-name="Path 134" d="M833.409,666.943c-.143.034-.289.066-.436.1L827.279,662l.39-.136c2.443-.865,9.72-3.477,16.962-6.451,7.781-3.2,15.525-6.811,17.191-9.125C861.464,646.823,850.459,663.13,833.409,666.943Z" transform="translate(-667.646 -516.054)" fill="#f0f0f0"/>
      <path id="Path_17768" data-name="Path 17768" d="M695.7,225.007h-.811V202.791a12.858,12.858,0,0,0-12.858-12.858H634.964a12.858,12.858,0,0,0-12.858,12.858V324.666a12.858,12.858,0,0,0,12.858,12.858h47.066a12.858,12.858,0,0,0,12.858-12.858V240.82h.811Z" transform="translate(-518.819 -185.027)" fill="#3f3d56"/>
      <path id="Path_17769" data-name="Path 17769" d="M701.523,211.717v121.7a9.6,9.6,0,0,1-9.6,9.6H644.627a9.6,9.6,0,0,1-9.6-9.6v-121.7a9.6,9.6,0,0,1,9.6-9.6h5.738a4.564,4.564,0,0,0,4.225,6.283h26.963a4.559,4.559,0,0,0,4.225-6.283h6.141A9.6,9.6,0,0,1,701.523,211.717Z" transform="translate(-528.191 -193.865)" fill="#fff"/>
      <path id="Path_17770" data-name="Path 17770" d="M706.543,449.237H664.974a2.749,2.749,0,0,1-2.746-2.746v-1.367a2.749,2.749,0,0,1,2.746-2.746h41.569a2.749,2.749,0,0,1,2.746,2.746v1.367a2.749,2.749,0,0,1-2.746,2.746Z" transform="translate(-547.922 -368.144)" fill="#f0f0f0"/>
      <path id="Path_17771" data-name="Path 17771" d="M706.543,492.144H664.974a2.749,2.749,0,0,1-2.746-2.746v-1.367a2.749,2.749,0,0,1,2.746-2.746h41.569a2.75,2.75,0,0,1,2.746,2.746V489.4A2.749,2.749,0,0,1,706.543,492.144Z" transform="translate(-547.922 -399.268)" fill="#f0f0f0"/>
      <path id="Path_17772" data-name="Path 17772" d="M713.752,438.915H672.183a2.887,2.887,0,0,1-2.883-2.884v-1.367a2.887,2.887,0,0,1,2.883-2.883h41.569a2.887,2.887,0,0,1,2.884,2.883v1.367A2.887,2.887,0,0,1,713.752,438.915Zm-41.569-6.585a2.337,2.337,0,0,0-2.334,2.334v1.367a2.337,2.337,0,0,0,2.334,2.334h41.569a2.337,2.337,0,0,0,2.334-2.334v-1.367a2.337,2.337,0,0,0-2.334-2.334Z" transform="translate(-553.052 -360.458)" fill="#3f3d56"/>
      <path id="Path_17773" data-name="Path 17773" d="M713.752,481.823H672.183a2.887,2.887,0,0,1-2.883-2.884v-1.367a2.887,2.887,0,0,1,2.883-2.884h41.569a2.887,2.887,0,0,1,2.884,2.884v1.367A2.887,2.887,0,0,1,713.752,481.823Zm-41.569-6.585a2.337,2.337,0,0,0-2.334,2.334v1.367a2.337,2.337,0,0,0,2.334,2.334h41.569a2.337,2.337,0,0,0,2.334-2.334v-1.367a2.337,2.337,0,0,0-2.334-2.334Z" transform="translate(-553.052 -391.582)" fill="#3f3d56"/>
      <path id="Path_17774" data-name="Path 17774" d="M782.949,211.717v26.471a28.434,28.434,0,0,1-35.669-27.483q0-1.164.094-2.3h15.606a4.559,4.559,0,0,0,4.225-6.283h6.141A9.6,9.6,0,0,1,782.949,211.717Z" transform="translate(-609.617 -193.865)" fill="#f0f0f0"/>
      <path id="Path_17775" data-name="Path 17775" d="M658.923,653.314c0,.558-.021,1.109-.066,1.653h-14.23a9.6,9.6,0,0,1-9.6-9.6V632.35a21.166,21.166,0,0,1,23.9,20.964Z" transform="translate(-528.191 -505.817)" fill="#8bd4b3"/>
      <path id="Path_17776" data-name="Path 17776" d="M291.729,533.4a1.65,1.65,0,0,0,2.173-.842L306.721,503.5a3.674,3.674,0,0,0-4.69-4.909h0a3.625,3.625,0,0,0-1.854,1.587,3.765,3.765,0,0,0-.18.355l-12.819,29.053a1.648,1.648,0,0,0,.842,2.173Z" transform="translate(-275.768 -408.74)" fill="#ccc"/>
      <path id="Path_17777" data-name="Path 17777" d="M323.3,513.912l-12.68-2.818,3.138-8.3a8.774,8.774,0,0,1,9.419-6.489l.122.014Z" transform="translate(-292.876 -407.224)" fill="#2f2e41"/>
      <path id="Path_17778" data-name="Path 17778" d="M410.655,533.085a1.93,1.93,0,0,1-1.761-1.147l-12.819-29.054a3.949,3.949,0,0,1,7.033-3.569h0a3.991,3.991,0,0,1,.193.381L416.12,528.75a1.922,1.922,0,0,1-.983,2.535l-3.834,1.692,0,0A1.908,1.908,0,0,1,410.655,533.085Z" transform="translate(-354.616 -408.013)" fill="#ccc"/>
      <path id="Path_17779" data-name="Path 17779" d="M381.133,591.169a1.649,1.649,0,0,0-1.648,1.648V626.6a1.65,1.65,0,0,0,1.648,1.648h4.053a1.65,1.65,0,0,0,1.648-1.648V592.817a1.649,1.649,0,0,0-1.648-1.648Z" transform="translate(-342.827 -476.074)" fill="#ccc"/>
      <path id="Path_17780" data-name="Path 17780" d="M351.941,591.169a1.65,1.65,0,0,0-1.648,1.648V626.6a1.65,1.65,0,0,0,1.648,1.648h4.053a1.65,1.65,0,0,0,1.648-1.648V592.817a1.649,1.649,0,0,0-1.648-1.648Z" transform="translate(-321.652 -476.074)" fill="#ccc"/>
      <ellipse id="Ellipse_3214" data-name="Ellipse 3214" cx="14.006" cy="14.006" rx="14.006" ry="14.006" transform="translate(22.197 51.691)" fill="#ccc"/>
      <path id="Path_17781" data-name="Path 17781" d="M394.76,408a5.052,5.052,0,0,0,2.908-.693,2.233,2.233,0,0,0,.879-1.668,1.5,1.5,0,0,0-.511-1.234,1.939,1.939,0,0,0-1.834-.264l.741-5.417-.544-.075-.871,6.369.454-.209a1.663,1.663,0,0,1,1.7.015.965.965,0,0,1,.317.8,1.688,1.688,0,0,1-.654,1.243,4.543,4.543,0,0,1-2.6.587Z" transform="translate(-353.896 -336.427)" fill="#2f2e41"/>
      <rect id="Rectangle_17538" data-name="Rectangle 17538" width="2.958" height="0.549" transform="translate(45.739 62.767)" fill="#2f2e41"/>
      <rect id="Rectangle_17539" data-name="Rectangle 17539" width="2.958" height="0.549" transform="translate(36.401 62.767)" fill="#2f2e41"/>
      <path id="Path_17782" data-name="Path 17782" d="M355.688,518.452l-5.041-36.8a1.648,1.648,0,0,0-1.633-1.424h-3.805a1.653,1.653,0,0,0,.025-.275v-1.373a1.648,1.648,0,0,0-1.648-1.648h-3.3a1.648,1.648,0,0,0-1.648,1.648v1.373a1.648,1.648,0,0,0,.025.275h-3.8a1.648,1.648,0,0,0-1.633,1.424l-5.041,36.8a1.648,1.648,0,0,0,1.632,1.871h24.234a1.648,1.648,0,0,0,1.632-1.871Z" transform="translate(-305.607 -393.21)" fill="#2f2e41"/>
      <path id="Path_17783" data-name="Path 17783" d="M399.795,513.913v-17.6l.122-.014a8.777,8.777,0,0,1,9.424,6.5l3.134,8.288Z" transform="translate(-357.559 -407.225)" fill="#2f2e41"/>
      <path id="Path_17784" data-name="Path 17784" d="M327.014,373.194l-9.687-3.76c-1.584-.615-3.177-1.211-4.753-1.847a5.418,5.418,0,0,1-1.829-1.078,3.6,3.6,0,0,1-.912-1.765,18.185,18.185,0,0,1-.251-4.422,33.7,33.7,0,0,1,.39-4.735,22.873,22.873,0,0,1,2.925-8.343c2.717-4.458,7.4-7.811,12.782-7.544a10.945,10.945,0,0,1,6.852,2.723,4.326,4.326,0,0,0,.647.627.9.9,0,0,0,.515.035q.339-.022.679-.033a14.021,14.021,0,0,1,2.352.1,7.449,7.449,0,0,1,3.881,1.611,4.732,4.732,0,0,1,1.756,3.169,3.751,3.751,0,0,1-1.267,3.062c-1.156.974-2.8.632-4.191.558l-5.079-.269-2.573-.136c-.53-.028-.528.8,0,.824l6.839.362a29.894,29.894,0,0,0,3.332.135,3.728,3.728,0,0,0,2.289-.921,4.567,4.567,0,0,0,1.383-4.284,6.124,6.124,0,0,0-3.078-3.909,11.662,11.662,0,0,0-6.63-1.07l.291.121a12.005,12.005,0,0,0-10.054-3.464,15.046,15.046,0,0,0-9.723,5.5,22.64,22.64,0,0,0-4.813,11.542,38.394,38.394,0,0,0-.3,6.833,8.608,8.608,0,0,0,.509,2.952,4.226,4.226,0,0,0,1.984,2.127,28.4,28.4,0,0,0,3.149,1.294L318,370.575l7.011,2.721,1.785.693c.495.192.709-.6.219-.794Z" transform="translate(-291.516 -293.055)" fill="#2f2e41"/>
      <path id="Path_17785" data-name="Path 17785" d="M308.552,339.447a4.257,4.257,0,1,1,4.257-4.257A4.257,4.257,0,0,1,308.552,339.447Zm0-7.689a3.433,3.433,0,1,0,3.433,3.433A3.433,3.433,0,0,0,308.552,331.758Z" transform="translate(-288.286 -287.305)" fill="#2f2e41"/>
      <rect id="Rectangle_17540" data-name="Rectangle 17540" width="11.599" height="11.599" transform="matrix(0.794, 0.608, -0.608, 0.794, 82.209, 71.474)" fill="#f0f0f0"/>
      <path id="Path_17786" data-name="Path 17786" d="M348.045,187.684a9.323,9.323,0,0,1,7.491,3.763l5.38-7.034-16.142-12.346-12.346,16.142,6.957,5.321A9.338,9.338,0,0,1,348.045,187.684Z" transform="translate(-308.693 -172.066)" fill="#f0f0f0"/>
      <path id="Path_17787" data-name="Path 17787" d="M440.159,726.483H246.275a.275.275,0,0,1,0-.549H440.159a.275.275,0,1,1,0,.549Z" transform="translate(-246 -573.829)" fill="#3f3d56"/>
      <path id="Path_17788" data-name="Path 17788" d="M721.306,543.885H701.571a2.749,2.749,0,0,1-2.746-2.746v-1.367a2.749,2.749,0,0,1,2.746-2.746h19.735a2.749,2.749,0,0,1,2.746,2.746v1.367A2.749,2.749,0,0,1,721.306,543.885Z" transform="translate(-574.469 -436.799)" fill="#8bd4b3"/>
      <path id="Path_17789" data-name="Path 17789" d="M728.516,533.563H708.78a2.887,2.887,0,0,1-2.884-2.883v-1.367a2.887,2.887,0,0,1,2.884-2.884h19.735a2.887,2.887,0,0,1,2.883,2.884v1.367A2.887,2.887,0,0,1,728.516,533.563Zm-19.735-6.585a2.337,2.337,0,0,0-2.334,2.334v1.367a2.337,2.337,0,0,0,2.334,2.334h19.735a2.337,2.337,0,0,0,2.334-2.334v-1.367a2.337,2.337,0,0,0-2.334-2.334Z" transform="translate(-579.598 -429.113)" fill="#3f3d56"/>
    </g>
    <g id="Group_20389" data-name="Group 20389" transform="translate(782.34 386.592)">
      <ellipse id="Ellipse_3217" data-name="Ellipse 3217" cx="18.963" cy="18.963" rx="18.963" ry="18.963" transform="translate(0)" fill="#8bd4b3"/>
      <path id="Path_17797" data-name="Path 17797" d="M891.153,249.341H875.441a1.085,1.085,0,0,1-1.084-1.084v-9.481a1.085,1.085,0,0,1,1.084-1.084h15.712a1.085,1.085,0,0,1,1.084,1.084v9.481A1.085,1.085,0,0,1,891.153,249.341Zm-15.712-10.565v9.481h15.713v-9.481Z" transform="translate(-864.334 -222.116)" fill="#fff"/>
      <path id="Path_17798" data-name="Path 17798" d="M900.69,212.073h-9.752v-4.334c0-3.139,2.051-5.418,4.876-5.418s4.876,2.279,4.876,5.418Zm-8.669-1.084h7.585v-3.251c0-2.552-1.559-4.334-3.792-4.334s-3.793,1.782-3.793,4.334Z" transform="translate(-876.851 -195.413)" fill="#fff"/>
    </g>
    <ellipse id="Ellipse_3229" data-name="Ellipse 3229" cx="1.084" cy="1.084" rx="1.084" ry="1.084" transform="translate(800.22 406.639)" fill="#fff"/>
  </g>
</svg>
