<svg xmlns="http://www.w3.org/2000/svg" width="217.165" height="142.66" viewBox="0 0 217.165 142.66">
  <g id="Group_20158" data-name="Group 20158" transform="translate(-223 7254)">
    <g id="undraw_team_up_ip2x" transform="translate(223 -7235.491)">
      <circle id="Ellipse_3132" data-name="Ellipse 3132" cx="1.751" cy="1.751" r="1.751" transform="translate(208.127 2.751)" fill="#f2f2f2"/>
      <circle id="Ellipse_3133" data-name="Ellipse 3133" cx="1.751" cy="1.751" r="1.751" transform="translate(201.148 2.751)" fill="#f2f2f2"/>
      <circle id="Ellipse_3134" data-name="Ellipse 3134" cx="1.751" cy="1.751" r="1.751" transform="translate(194.17 2.751)" fill="#f2f2f2"/>
      <circle id="Ellipse_3135" data-name="Ellipse 3135" cx="1.751" cy="1.751" r="1.751" transform="translate(187.191 2.751)" fill="#f2f2f2"/>
      <circle id="Ellipse_3136" data-name="Ellipse 3136" cx="1.751" cy="1.751" r="1.751" transform="translate(208.127 10.062)" fill="#f2f2f2"/>
      <circle id="Ellipse_3137" data-name="Ellipse 3137" cx="1.751" cy="1.751" r="1.751" transform="translate(201.148 10.062)" fill="#f2f2f2"/>
      <circle id="Ellipse_3138" data-name="Ellipse 3138" cx="1.751" cy="1.751" r="1.751" transform="translate(194.17 10.062)" fill="#f2f2f2"/>
      <circle id="Ellipse_3139" data-name="Ellipse 3139" cx="1.751" cy="1.751" r="1.751" transform="translate(187.191 10.062)" fill="#f2f2f2"/>
      <circle id="Ellipse_3140" data-name="Ellipse 3140" cx="1.751" cy="1.751" r="1.751" transform="translate(208.127 17.373)" fill="#f2f2f2"/>
      <circle id="Ellipse_3141" data-name="Ellipse 3141" cx="1.751" cy="1.751" r="1.751" transform="translate(201.148 17.373)" fill="#f2f2f2"/>
      <circle id="Ellipse_3142" data-name="Ellipse 3142" cx="1.751" cy="1.751" r="1.751" transform="translate(194.17 17.373)" fill="#f2f2f2"/>
      <circle id="Ellipse_3143" data-name="Ellipse 3143" cx="1.751" cy="1.751" r="1.751" transform="translate(187.191 17.373)" fill="#f2f2f2"/>
      <circle id="Ellipse_3144" data-name="Ellipse 3144" cx="1.751" cy="1.751" r="1.751" transform="translate(208.127 24.684)" fill="#f2f2f2"/>
      <circle id="Ellipse_3145" data-name="Ellipse 3145" cx="1.751" cy="1.751" r="1.751" transform="translate(201.148 24.684)" fill="#f2f2f2"/>
      <circle id="Ellipse_3146" data-name="Ellipse 3146" cx="1.751" cy="1.751" r="1.751" transform="translate(194.17 24.684)" fill="#f2f2f2"/>
      <circle id="Ellipse_3147" data-name="Ellipse 3147" cx="1.751" cy="1.751" r="1.751" transform="translate(187.191 24.684)" fill="#f2f2f2"/>
      <circle id="Ellipse_3148" data-name="Ellipse 3148" cx="1.751" cy="1.751" r="1.751" transform="translate(208.127 31.995)" fill="#f2f2f2"/>
      <circle id="Ellipse_3149" data-name="Ellipse 3149" cx="1.751" cy="1.751" r="1.751" transform="translate(201.148 31.995)" fill="#f2f2f2"/>
      <circle id="Ellipse_3150" data-name="Ellipse 3150" cx="1.751" cy="1.751" r="1.751" transform="translate(194.17 31.995)" fill="#f2f2f2"/>
      <circle id="Ellipse_3151" data-name="Ellipse 3151" cx="1.751" cy="1.751" r="1.751" transform="translate(187.191 31.995)" fill="#f2f2f2"/>
      <circle id="Ellipse_3152" data-name="Ellipse 3152" cx="1.751" cy="1.751" r="1.751" transform="translate(208.127 39.306)" fill="#f2f2f2"/>
      <circle id="Ellipse_3153" data-name="Ellipse 3153" cx="1.751" cy="1.751" r="1.751" transform="translate(201.148 39.306)" fill="#f2f2f2"/>
      <circle id="Ellipse_3154" data-name="Ellipse 3154" cx="1.751" cy="1.751" r="1.751" transform="translate(194.17 39.306)" fill="#f2f2f2"/>
      <circle id="Ellipse_3155" data-name="Ellipse 3155" cx="1.751" cy="1.751" r="1.751" transform="translate(187.191 39.306)" fill="#f2f2f2"/>
      <path id="Path_17656" data-name="Path 17656" d="M853.4,600.387a36.138,36.138,0,0,0,3.076-8.46,12.454,12.454,0,0,0-1.253-8.735,7.625,7.625,0,0,0-7.617-3.726,8.4,8.4,0,0,0-5.512,4.579,24.849,24.849,0,0,0-2.041,7.1,29.044,29.044,0,0,0-1.213-8.177,9.8,9.8,0,0,0-5.3-6.05c-2.575-1.01-5.924-.216-7.281,2.194-1.912,3.4.623,8.157-1.575,11.374a6.035,6.035,0,1,0-11.9,1.926A8.133,8.133,0,0,0,816,597.075a26.663,26.663,0,0,0,5.116,3.274Z" transform="translate(-646.498 -481.08)" fill="#f2f2f2"/>
      <path id="Path_17657" data-name="Path 17657" d="M818.892,616.026a39.94,39.94,0,0,1,7.444,3.183,13.725,13.725,0,0,1,5.113,5.079,9.032,9.032,0,0,1,1.117,3.753c.017.276.448.278.431,0a10.6,10.6,0,0,0-3-6.474,18.989,18.989,0,0,0-6.6-4.308c-1.44-.612-2.916-1.132-4.392-1.648-.262-.092-.375.325-.115.416Z" transform="translate(-650.93 -509.6)" fill="#fff"/>
      <path id="Path_17658" data-name="Path 17658" d="M873.487,578.79a38.824,38.824,0,0,1,3.734,8.29,39.3,39.3,0,0,1,1.722,8.927,38.811,38.811,0,0,1,.041,5.1c-.016.277.415.276.431,0a39.316,39.316,0,0,0-.552-9.158,39.785,39.785,0,0,0-2.645-8.784,38.8,38.8,0,0,0-2.359-4.593.216.216,0,0,0-.372.218Z" transform="translate(-690.831 -482.528)" fill="#fff"/>
      <path id="Path_17659" data-name="Path 17659" d="M937.458,588.486a62.828,62.828,0,0,0-4.635,15.591q-.364,2.265-.563,4.552c-.024.276.407.275.431,0a62.61,62.61,0,0,1,3.449-15.712q.767-2.137,1.69-4.214C937.942,588.453,937.571,588.233,937.458,588.486Z" transform="translate(-733.708 -489.749)" fill="#fff"/>
      <path id="Path_17660" data-name="Path 17660" d="M415.894,663.028H199.271a.271.271,0,1,1,0-.542H415.894a.271.271,0,1,1,0,.542Z" transform="translate(-199 -543.793)" fill="#3f3d56"/>
      <circle id="Ellipse_3156" data-name="Ellipse 3156" cx="1.751" cy="1.751" r="1.751" transform="translate(29.641 0)" fill="#f2f2f2"/>
      <circle id="Ellipse_3157" data-name="Ellipse 3157" cx="1.751" cy="1.751" r="1.751" transform="translate(29.641 6.979)" fill="#f2f2f2"/>
      <circle id="Ellipse_3158" data-name="Ellipse 3158" cx="1.751" cy="1.751" r="1.751" transform="translate(29.641 13.958)" fill="#f2f2f2"/>
      <circle id="Ellipse_3159" data-name="Ellipse 3159" cx="1.751" cy="1.751" r="1.751" transform="translate(29.641 20.937)" fill="#f2f2f2"/>
      <circle id="Ellipse_3160" data-name="Ellipse 3160" cx="1.751" cy="1.751" r="1.751" transform="translate(36.952 0)" fill="#f2f2f2"/>
      <circle id="Ellipse_3161" data-name="Ellipse 3161" cx="1.751" cy="1.751" r="1.751" transform="translate(36.952 6.979)" fill="#f2f2f2"/>
      <circle id="Ellipse_3162" data-name="Ellipse 3162" cx="1.751" cy="1.751" r="1.751" transform="translate(36.952 13.958)" fill="#f2f2f2"/>
      <circle id="Ellipse_3163" data-name="Ellipse 3163" cx="1.751" cy="1.751" r="1.751" transform="translate(36.952 20.937)" fill="#f2f2f2"/>
      <circle id="Ellipse_3164" data-name="Ellipse 3164" cx="1.751" cy="1.751" r="1.751" transform="translate(44.263 0)" fill="#f2f2f2"/>
      <circle id="Ellipse_3165" data-name="Ellipse 3165" cx="1.751" cy="1.751" r="1.751" transform="translate(44.263 6.979)" fill="#f2f2f2"/>
      <circle id="Ellipse_3166" data-name="Ellipse 3166" cx="1.751" cy="1.751" r="1.751" transform="translate(44.263 13.958)" fill="#f2f2f2"/>
      <circle id="Ellipse_3167" data-name="Ellipse 3167" cx="1.751" cy="1.751" r="1.751" transform="translate(44.263 20.937)" fill="#f2f2f2"/>
      <circle id="Ellipse_3168" data-name="Ellipse 3168" cx="1.751" cy="1.751" r="1.751" transform="translate(51.574 0)" fill="#f2f2f2"/>
      <circle id="Ellipse_3169" data-name="Ellipse 3169" cx="1.751" cy="1.751" r="1.751" transform="translate(51.574 6.979)" fill="#f2f2f2"/>
      <circle id="Ellipse_3170" data-name="Ellipse 3170" cx="1.751" cy="1.751" r="1.751" transform="translate(51.574 13.958)" fill="#f2f2f2"/>
      <circle id="Ellipse_3171" data-name="Ellipse 3171" cx="1.751" cy="1.751" r="1.751" transform="translate(51.574 20.937)" fill="#f2f2f2"/>
      <circle id="Ellipse_3172" data-name="Ellipse 3172" cx="1.751" cy="1.751" r="1.751" transform="translate(58.885 0)" fill="#f2f2f2"/>
      <circle id="Ellipse_3173" data-name="Ellipse 3173" cx="1.751" cy="1.751" r="1.751" transform="translate(58.885 6.979)" fill="#f2f2f2"/>
      <circle id="Ellipse_3174" data-name="Ellipse 3174" cx="1.751" cy="1.751" r="1.751" transform="translate(58.885 13.958)" fill="#f2f2f2"/>
      <circle id="Ellipse_3175" data-name="Ellipse 3175" cx="1.751" cy="1.751" r="1.751" transform="translate(58.885 20.937)" fill="#f2f2f2"/>
      <circle id="Ellipse_3176" data-name="Ellipse 3176" cx="1.751" cy="1.751" r="1.751" transform="translate(66.196 0)" fill="#f2f2f2"/>
      <circle id="Ellipse_3177" data-name="Ellipse 3177" cx="1.751" cy="1.751" r="1.751" transform="translate(66.196 6.979)" fill="#f2f2f2"/>
      <circle id="Ellipse_3178" data-name="Ellipse 3178" cx="1.751" cy="1.751" r="1.751" transform="translate(66.196 13.958)" fill="#f2f2f2"/>
      <circle id="Ellipse_3179" data-name="Ellipse 3179" cx="1.751" cy="1.751" r="1.751" transform="translate(66.196 20.937)" fill="#f2f2f2"/>
      <circle id="Ellipse_3180" data-name="Ellipse 3180" cx="11.376" cy="11.376" r="11.376" transform="translate(37.647 98.849)" fill="#2f2e41"/>
      <rect id="Rectangle_17435" data-name="Rectangle 17435" width="6.192" height="3.456" transform="translate(39.16 120.473) rotate(-26.601)" fill="#2f2e41"/>
      <ellipse id="Ellipse_3181" data-name="Ellipse 3181" cx="1.08" cy="2.88" rx="1.08" ry="2.88" transform="translate(36.035 120.979) rotate(-56.601)" fill="#2f2e41"/>
      <rect id="Rectangle_17436" data-name="Rectangle 17436" width="3.456" height="6.192" transform="translate(51.802 120.789) rotate(-63.399)" fill="#2f2e41"/>
      <ellipse id="Ellipse_3182" data-name="Ellipse 3182" cx="2.88" cy="1.08" rx="2.88" ry="1.08" transform="translate(56.013 122.348) rotate(-33.399)" fill="#2f2e41"/>
      <circle id="Ellipse_3183" data-name="Ellipse 3183" cx="3.888" cy="3.888" r="3.888" transform="translate(44.339 103.555)" fill="#fff"/>
      <path id="Path_17665" data-name="Path 17665" d="M367.763,620.35a1.343,1.343,0,0,1,1.9,1.9A1.343,1.343,0,0,1,367.763,620.35Z" transform="translate(-321.812 -512.814)" fill="#3f3d56"/>
      <path id="Path_17666" data-name="Path 17666" d="M367.834,564.031c.171-4.212-3.459-7.779-8.107-7.968s-8.556,3.072-8.727,7.284,3.06,5.168,7.709,5.357S367.663,568.242,367.834,564.031Z" transform="translate(-309.837 -466.181)" fill="#ccc"/>
      <ellipse id="Ellipse_3184" data-name="Ellipse 3184" cx="1.786" cy="5.688" rx="1.786" ry="5.688" transform="translate(55.79 108.714) rotate(-40.645)" fill="#2f2e41"/>
      <ellipse id="Ellipse_3185" data-name="Ellipse 3185" cx="5.688" cy="1.786" rx="5.688" ry="1.786" transform="translate(32.169 115.019) rotate(-49.355)" fill="#2f2e41"/>
      <path id="Path_17667" data-name="Path 17667" d="M377.745,644.13a2.592,2.592,0,1,1-5.1.928v-.005c-.255-1.409.834-1.907,2.243-2.162S377.49,642.722,377.745,644.13Z" transform="translate(-325.598 -529.422)" fill="#fff"/>
      <ellipse id="Ellipse_3188" data-name="Ellipse 3188" cx="5.831" cy="1.83" rx="5.831" ry="1.83" transform="matrix(0.357, -0.934, 0.934, 0.357, 55.844, 73.191)" fill="#2f2e41"/>
      <circle id="Ellipse_3189" data-name="Ellipse 3189" cx="11.662" cy="11.662" r="11.662" transform="translate(35.478 86.846) rotate(-80.783)" fill="#2f2e41"/>
      <rect id="Rectangle_17441" data-name="Rectangle 17441" width="3.543" height="6.348" transform="translate(43.543 86.356)" fill="#2f2e41"/>
      <rect id="Rectangle_17442" data-name="Rectangle 17442" width="3.543" height="6.348" transform="translate(50.629 86.356)" fill="#2f2e41"/>
      <ellipse id="Ellipse_3190" data-name="Ellipse 3190" cx="2.952" cy="1.107" rx="2.952" ry="1.107" transform="translate(43.543 91.67)" fill="#2f2e41"/>
      <ellipse id="Ellipse_3191" data-name="Ellipse 3191" cx="2.952" cy="1.107" rx="2.952" ry="1.107" transform="translate(50.629 91.522)" fill="#2f2e41"/>
      <circle id="Ellipse_3192" data-name="Ellipse 3192" cx="3.986" cy="3.986" r="3.986" transform="matrix(1, -0.029, 0.029, 1, 45.051, 70.385)" fill="#fff"/>
      <circle id="Ellipse_3193" data-name="Ellipse 3193" cx="1.329" cy="1.329" r="1.329" transform="translate(47.824 72.922)" fill="#3f3d56"/>
      <path id="Path_17681" data-name="Path 17681" d="M337.191,442.958c-.942-4.217,2.068-8.478,6.723-9.518s9.191,1.537,10.133,5.754-2.143,5.772-6.8,6.812S338.132,447.176,337.191,442.958Z" transform="translate(-299.646 -376.6)" fill="#8f8f8f"/>
      <ellipse id="Ellipse_3194" data-name="Ellipse 3194" cx="1.83" cy="5.831" rx="1.83" ry="5.831" transform="translate(29.67 70.947) rotate(-64.626)" fill="#2f2e41"/>
      <path id="Path_17682" data-name="Path 17682" d="M358.277,520.987c0,1.141,2.939,3.4,6.2,3.4s6.319-3.213,6.319-4.355-3.058.221-6.319.221S358.277,519.846,358.277,520.987Z" transform="translate(-315.148 -439.577)" fill="#fff"/>
      <path id="Path_17683" data-name="Path 17683" d="M430.8,466.248l-8.584,1.676a.931.931,0,0,1-.791-.209.947.947,0,0,1-.329-.764,22.446,22.446,0,0,0-2-10.232.947.947,0,0,1,.018-.832.931.931,0,0,1,.654-.491l8.584-1.676a.944.944,0,0,1,1.064.6,36.743,36.743,0,0,1,2.142,10.974A.944.944,0,0,1,430.8,466.248Z" transform="translate(-359.433 -391.544)" fill="#8f8f8f"/>
      <path id="Path_17684" data-name="Path 17684" d="M291.8,495.248l-8.584,1.676a.931.931,0,0,1-.791-.209.947.947,0,0,1-.329-.764,22.446,22.446,0,0,0-2-10.232.947.947,0,0,1,.018-.831.931.931,0,0,1,.654-.491l8.584-1.676a.944.944,0,0,1,1.064.6,36.743,36.743,0,0,1,2.142,10.974A.944.944,0,0,1,291.8,495.248Z" transform="translate(-258.072 -412.692)" fill="#ccc"/>
      <path id="Path_17686" data-name="Path 17686" d="M333.926,641.172l-8.584,1.676a.932.932,0,0,1-.791-.209.947.947,0,0,1-.329-.764,22.445,22.445,0,0,0-2-10.232.947.947,0,0,1,.018-.831.931.931,0,0,1,.654-.491l8.584-1.676a.944.944,0,0,1,1.064.6,36.745,36.745,0,0,1,2.142,10.974A.944.944,0,0,1,333.926,641.172Z" transform="translate(-288.794 -519.102)" fill="#8f8f8f"/>
    </g>
    <path id="Path_340" data-name="Path 340" d="M387.377,383.122H344.5a1.518,1.518,0,0,1,0-3.035h42.872a1.518,1.518,0,1,1,0,3.035Z" transform="translate(-26.843 -7580.042)" fill="#ccc"/>
    <path id="Path_341" data-name="Path 341" d="M387.377,412.546H344.5a1.518,1.518,0,0,1,0-3.035h42.872a1.518,1.518,0,1,1,0,3.035Z" transform="translate(-26.843 -7601.5)" fill="#ccc"/>
    <path id="Path_342" data-name="Path 342" d="M387.377,441.97H344.5a1.518,1.518,0,0,1,0-3.035h42.872a1.518,1.518,0,0,1,0,3.035Z" transform="translate(-26.843 -7622.956)" fill="#ccc"/>
    <path id="Path_343" data-name="Path 343" d="M387.377,471.394H344.5a1.518,1.518,0,0,1,0-3.035h42.872a1.518,1.518,0,1,1,0,3.035Z" transform="translate(-26.843 -7644.413)" fill="#ccc"/>
    <path id="Path_344" data-name="Path 344" d="M387.377,500.818H344.5a1.518,1.518,0,0,1,0-3.035h42.872a1.518,1.518,0,1,1,0,3.035Z" transform="translate(-26.843 -7665.869)" fill="#ccc"/>
    <path id="Path_336" data-name="Path 336" d="M368.649,234.265a3.45,3.45,0,0,0-3.155-2.111H302.515a3.416,3.416,0,0,0-3.414,3.414v79.674a3.416,3.416,0,0,0,3.414,3.414H365.5a3.418,3.418,0,0,0,3.414-3.414V235.568a3.353,3.353,0,0,0-.259-1.3Zm-.5,80.977a2.659,2.659,0,0,1-2.656,2.656H302.515a2.656,2.656,0,0,1-2.656-2.655V235.568a2.659,2.659,0,0,1,2.656-2.656H365.5a2.669,2.669,0,0,1,2.465,1.671,2.939,2.939,0,0,1,.1.3,2.634,2.634,0,0,1,.091.686Z" transform="translate(5.16 -7472.167)" fill="#3f3d56"/>
    <path id="Path_337" data-name="Path 337" d="M452.233,293.449h-18.97a1.518,1.518,0,0,1,0-3.035h18.97a1.518,1.518,0,1,1,0,3.035Z" transform="translate(-91.567 -7514.651)" fill="#3f3d56"/>
    <path id="Path_338" data-name="Path 338" d="M452.233,322.873h-18.97a1.518,1.518,0,0,1,0-3.035h18.97a1.518,1.518,0,1,1,0,3.035Z" transform="translate(-91.567 -7536.108)" fill="#3f3d56"/>
    <path id="Path_339" data-name="Path 339" d="M359.471,294.547H345.608a1.709,1.709,0,0,1-1.707-1.707V276.48a1.709,1.709,0,0,1,1.707-1.707h13.863a1.709,1.709,0,0,1,1.707,1.707v16.36A1.709,1.709,0,0,1,359.471,294.547Z" transform="translate(-27.509 -7503.246)" fill="#8bd4b3"/>
    <circle id="Ellipse_44" data-name="Ellipse 44" cx="14.646" cy="14.646" r="14.646" transform="translate(359.633 -7254)" fill="#8bd4b3"/>
    <path id="Path_395" data-name="Path 395" d="M538.935,225.225a1.519,1.519,0,0,1-.914-.3l-.016-.012-3.442-2.633a1.53,1.53,0,0,1,1.861-2.428l2.23,1.71,5.268-6.873a1.529,1.529,0,0,1,2.144-.283h0l-.033.045.034-.045a1.531,1.531,0,0,1,.283,2.144l-6.2,8.081a1.53,1.53,0,0,1-1.217.6Z" transform="translate(-166.107 -7458.991)" fill="#fff"/>
    <path id="Path_17687" data-name="Path 17687" d="M3.139,21.9a13.323,13.323,0,1,1,19.666.755L36.588,38.993a1.227,1.227,0,1,1-1.874,1.584l0,0L20.93,24.242A13.308,13.308,0,0,1,3.139,21.9ZM19.6,20.851A9.982,9.982,0,1,0,5.544,19.66h0A9.968,9.968,0,0,0,19.6,20.851Z" transform="translate(366.863 -7200.065)" fill="#3f3d56"/>
  </g>
</svg>
