<svg xmlns="http://www.w3.org/2000/svg" xmlns:xlink="http://www.w3.org/1999/xlink" width="24" height="24" viewBox="0 0 24 24">
  <defs>
    <clipPath id="clip-path">
      <rect id="Rectangle_17563" data-name="Rectangle 17563" width="24" height="24" transform="translate(1054 -15680)" fill="#fff" stroke="#707070" stroke-width="1"/>
    </clipPath>
  </defs>
  <g id="Mask_Group_16453" data-name="Mask Group 16453" transform="translate(-1054 15680)" clip-path="url(#clip-path)">
    <g id="noun_drive_3053082" transform="translate(1055.405 -15678.596)">
      <g id="Group_20409" data-name="Group 20409" transform="translate(0.25 0.25)">
        <g id="Group_20408" data-name="Group 20408">
          <path id="Path_17828" data-name="Path 17828" d="M10.6,20.94A10.345,10.345,0,1,1,20.94,10.6,10.345,10.345,0,0,1,10.6,20.94Zm0-1.321A9.025,9.025,0,1,0,1.571,10.6,9.025,9.025,0,0,0,10.6,19.62Z" transform="translate(-0.25 -0.25)" fill="#19aa69"/>
          <path id="Path_17829" data-name="Path 17829" d="M9.165,14.474a3.975,3.975,0,0,1-1.789-1.789H4.56A6.617,6.617,0,0,0,9.165,17.29Zm-6.151-3.11H8.321a2.643,2.643,0,0,0,2.165,2.165v5.307A7.925,7.925,0,0,1,3.014,11.364Zm1.546-2.2H7.375a3.964,3.964,0,0,1,7.1,0h2.816a6.606,6.606,0,0,0-12.733,0ZM10.926,3a7.924,7.924,0,0,1,7.912,7.484H13.53a2.642,2.642,0,0,0-5.21,0H3.014A7.924,7.924,0,0,1,10.926,3Zm3.55,9.685a3.975,3.975,0,0,1-1.789,1.789V17.29a6.617,6.617,0,0,0,4.605-4.605Zm-3.11,6.151V13.529a2.643,2.643,0,0,0,2.165-2.165h5.307A7.925,7.925,0,0,1,11.366,18.836Z" transform="translate(-0.58 -0.579)" fill="#19aa69" opacity="0.4"/>
        </g>
      </g>
    </g>
  </g>
</svg>
