<svg xmlns="http://www.w3.org/2000/svg" width="16.899" height="18.298" viewBox="0 0 16.899 18.298">
  <g id="Iconly_Two-tone_Delete" data-name="Iconly/Two-tone/Delete" transform="translate(0.75 0.75)">
    <g id="Delete">
      <path id="Stroke_1" data-name="Stroke 1" d="M12.887,0s-.493,6.116-.779,8.692a2.032,2.032,0,0,1-2.141,1.974c-2.369.043-4.741.045-7.109,0A2.01,2.01,0,0,1,.778,8.7C.49,6.1,0,0,0,0" transform="translate(1.257 6.1)" fill="none" stroke="#19aa69" stroke-linecap="round" stroke-linejoin="round" stroke-width="1.5" opacity="0.4"/>
      <path id="Stroke_3" data-name="Stroke 3" d="M15.4.5H0" transform="translate(0 2.668)" fill="none" stroke="#19aa69" stroke-linecap="round" stroke-linejoin="round" stroke-width="1.5"/>
      <path id="Stroke_5" data-name="Stroke 5" d="M9.465,3.168A1.5,1.5,0,0,1,8,1.966L7.778.862A1.162,1.162,0,0,0,6.654,0H2.811A1.162,1.162,0,0,0,1.687.862l-.221,1.1A1.5,1.5,0,0,1,0,3.168" transform="translate(2.967)" fill="none" stroke="#19aa69" stroke-linecap="round" stroke-linejoin="round" stroke-width="1.5"/>
    </g>
  </g>
</svg>
