<svg xmlns="http://www.w3.org/2000/svg" width="18.605" height="18.812" viewBox="0 0 18.605 18.812">
  <g id="Iconly_Two-tone_Edit_Square" data-name="Iconly/Two-tone/Edit Square" transform="translate(0.75 0.926)">
    <g id="Edit_Square" data-name="Edit Square" transform="translate(0 0)">
      <path id="Stroke_1" data-name="Stroke 1" d="M7.939,0h-3.4C1.751,0,0,1.977,0,4.776v7.55c0,2.8,1.743,4.776,4.543,4.776h8.013c2.8,0,4.544-1.977,4.544-4.776V8.667" transform="translate(0 0.035)" fill="none" stroke="#19aa69" stroke-linecap="round" stroke-linejoin="round" stroke-width="1.5" opacity="0.4"/>
      <path id="Stroke_3" data-name="Stroke 3" d="M.662,7.419,7.448.633a2.166,2.166,0,0,1,3.061,0l1.105,1.105a2.164,2.164,0,0,1,0,3.061L4.8,11.618A1.971,1.971,0,0,1,3.4,12.2H0L.085,8.763A1.971,1.971,0,0,1,.662,7.419Z" transform="translate(4.857 0)" fill="none" stroke="#19aa69" stroke-linecap="round" stroke-linejoin="round" stroke-width="1.5"/>
      <path id="Stroke_5" data-name="Stroke 5" d="M0,0,4.146,4.146" transform="translate(11.274 1.682)" fill="#fff" stroke="#19aa69" stroke-linecap="round" stroke-linejoin="round" stroke-width="1.5"/>
    </g>
  </g>
</svg>
