<svg xmlns="http://www.w3.org/2000/svg" xmlns:xlink="http://www.w3.org/1999/xlink" width="24" height="24" viewBox="0 0 24 24">
  <defs>
    <clipPath id="clip-path">
      <rect id="Rectangle_17561" data-name="Rectangle 17561" width="24" height="24" transform="translate(1013 -15720)" fill="#fff" stroke="#707070" stroke-width="1"/>
    </clipPath>
    <clipPath id="clip-path-2">
      <path id="Path_17825" data-name="Path 17825" d="M1120.536-15755.409l-1,6.555,1.851,2.621s4.4.617,4.7.926,6.014,5.475,6.014,5.475l4.01-2.545v-3.855l-4.7-3.47-1.157-4.935-3.007-2.468Z" transform="translate(-1119.534 15757.105)" fill="#fff" stroke="#707070" stroke-width="1"/>
    </clipPath>
    <clipPath id="clip-path-3">
      <path id="Path_17826" data-name="Path 17826" d="M1252.826-15752.2l2.8,1.9v3.736l1.127,2.433h3.084l.771,1.3-1.127,7.711-3.322.415-2.373-1.661.534-5.575-2.906-5.22,1.414-3.381v-1.661Z" transform="translate(-1251.412 15752.496)" fill="#fff"/>
    </clipPath>
  </defs>
  <g id="Mask_Group_16451" data-name="Mask Group 16451" transform="translate(-1013 15720)" clip-path="url(#clip-path)">
    <g id="Group_20405" data-name="Group 20405" transform="translate(-86.07 38.682)">
      <g id="Mask_Group_16449" data-name="Mask Group 16449" transform="translate(1104.595 -15757.105)" clip-path="url(#clip-path-2)">
        <g id="noun_keys_843000" transform="translate(-2.519 1.193)">
          <path id="Path_17823" data-name="Path 17823" d="M9.039,12.951v.977l.618.618a.6.6,0,0,1,0,.848l-.526.526.528.526a.6.6,0,0,1,0,.848l-.62.625v.455l.977.977.977-.977V12.951a.489.489,0,0,1,.3-.453,3.337,3.337,0,0,0,.536-.278.473.473,0,0,1,.328-.131.5.5,0,0,1,.477.346.483.483,0,0,1-.2.547,4.453,4.453,0,0,1-.483.283v5.209a.733.733,0,0,1-.225.512l-1.265,1.265a.661.661,0,0,1-.93,0L8.278,18.987a.735.735,0,0,1-.217-.512v-.635a.782.782,0,0,1,.229-.553l.409-.409-.332-.334a.872.872,0,0,1,0-1.233l.334-.334-.409-.409a.782.782,0,0,1-.231-.553v-.749a4.357,4.357,0,0,1-.794-7.291.489.489,0,1,1,.614.76A3.38,3.38,0,0,0,8.736,12.5.489.489,0,0,1,9.039,12.951Zm11.206,2.643a.782.782,0,0,1-.549-.227l-.516-.516a.829.829,0,0,1-.24-.586v-.735h-.616a.93.93,0,0,1-.93-.928v-.618h-.731a.831.831,0,0,1-.586-.24L15.43,11.1A4.939,4.939,0,1,1,18.489,8.04l4.267,4.267a.782.782,0,0,1,.227.547v2.056a.684.684,0,0,1-.684.682Zm-.328-2.426V14.2l.412.412h1.677V12.939L17.575,8.508a.489.489,0,0,1-.106-.536,3.958,3.958,0,1,0-2.107,2.107.489.489,0,0,1,.536.106l.821.821h1.036a.618.618,0,0,1,.618.618v.928H19.3A.618.618,0,0,1,19.916,13.168Z" transform="translate(-5.647 -1.49)" fill="#19aa69"/>
        </g>
      </g>
      <g id="Ellipse_3232" data-name="Ellipse 3232" transform="translate(1108.118 -15753.063)" fill="none" stroke="#19aa69" stroke-width="1" opacity="0.4">
        <circle cx="1.979" cy="1.979" r="1.979" stroke="none"/>
        <circle cx="1.979" cy="1.979" r="1.479" fill="none"/>
      </g>
      <g id="Mask_Group_16450" data-name="Mask Group 16450" transform="translate(1100.966 -15754.054)" opacity="0.4" clip-path="url(#clip-path-3)">
        <g id="noun_keys_843000-2" data-name="noun_keys_843000" transform="translate(1.414 -1.741)">
          <path id="Path_17823-2" data-name="Path 17823" d="M9.039,12.951v.977l.618.618a.6.6,0,0,1,0,.848l-.526.526.528.526a.6.6,0,0,1,0,.848l-.62.625v.455l.977.977.977-.977V12.951a.489.489,0,0,1,.3-.453,3.337,3.337,0,0,0,.536-.278.473.473,0,0,1,.328-.131.5.5,0,0,1,.477.346.483.483,0,0,1-.2.547,4.453,4.453,0,0,1-.483.283v5.209a.733.733,0,0,1-.225.512l-1.265,1.265a.661.661,0,0,1-.93,0L8.278,18.987a.735.735,0,0,1-.217-.512v-.635a.782.782,0,0,1,.229-.553l.409-.409-.332-.334a.872.872,0,0,1,0-1.233l.334-.334-.409-.409a.782.782,0,0,1-.231-.553v-.749a4.357,4.357,0,0,1-.794-7.291.489.489,0,1,1,.614.76A3.38,3.38,0,0,0,8.736,12.5.489.489,0,0,1,9.039,12.951Zm11.206,2.643a.782.782,0,0,1-.549-.227l-.516-.516a.829.829,0,0,1-.24-.586v-.735h-.616a.93.93,0,0,1-.93-.928v-.618h-.731a.831.831,0,0,1-.586-.24L15.43,11.1A4.939,4.939,0,1,1,18.489,8.04l4.267,4.267a.782.782,0,0,1,.227.547v2.056a.684.684,0,0,1-.684.682Zm-.328-2.426V14.2l.412.412h1.677V12.939L17.575,8.508a.489.489,0,0,1-.106-.536,3.958,3.958,0,1,0-2.107,2.107.489.489,0,0,1,.536.106l.821.821h1.036a.618.618,0,0,1,.618.618v.928H19.3A.618.618,0,0,1,19.916,13.168ZM14,4.454a1.527,1.527,0,1,1-1.079-.448A1.527,1.527,0,0,1,14,4.454Zm-.692.692a.553.553,0,1,0-.782.782.563.563,0,0,0,.782,0,.551.551,0,0,0,0-.784Z" transform="translate(-5.647 -1.49)" fill="#19aa69"/>
        </g>
      </g>
    </g>
  </g>
</svg>
